<svg width="900" height="470" viewBox="0 0 900 470" fill="none" xmlns="http://www.w3.org/2000/svg">
<g clip-path="url(#clip0_72_303)">
<rect width="900" height="470" fill="#FEC62E"/>
<g filter="url(#filter0_d_72_303)">
<rect x="410" y="32" width="81" height="40" fill="white"/>
<path d="M437.07 49.4688C437.669 48.75 438.422 48.3906 439.328 48.3906C441.161 48.3906 442.091 49.4557 442.117 51.5859V57H439.859V51.6484C439.859 51.1641 439.755 50.8073 439.547 50.5781C439.339 50.3438 438.992 50.2266 438.508 50.2266C437.846 50.2266 437.367 50.4818 437.07 50.9922V57H434.812V45H437.07V49.4688ZM446.523 46.4688V48.5469H447.969V50.2031H446.523V54.4219C446.523 54.7344 446.583 54.9583 446.703 55.0938C446.823 55.2292 447.052 55.2969 447.391 55.2969C447.641 55.2969 447.862 55.2786 448.055 55.2422V56.9531C447.612 57.0885 447.156 57.1562 446.688 57.1562C445.104 57.1562 444.297 56.3568 444.266 54.7578V50.2031H443.031V48.5469H444.266V46.4688H446.523ZM451.344 48.5469L451.414 49.4922C452.013 48.7578 452.823 48.3906 453.844 48.3906C454.932 48.3906 455.68 48.8203 456.086 49.6797C456.68 48.8203 457.526 48.3906 458.625 48.3906C459.542 48.3906 460.224 48.6589 460.672 49.1953C461.12 49.7266 461.344 50.5286 461.344 51.6016V57H459.078V51.6094C459.078 51.1302 458.984 50.7812 458.797 50.5625C458.609 50.3385 458.279 50.2266 457.805 50.2266C457.128 50.2266 456.659 50.5495 456.398 51.1953L456.406 57H454.148V51.6172C454.148 51.1276 454.052 50.7734 453.859 50.5547C453.667 50.3359 453.339 50.2266 452.875 50.2266C452.234 50.2266 451.771 50.4922 451.484 51.0234V57H449.227V48.5469H451.344ZM465.469 57H463.203V45H465.469V57Z" fill="#424242"/>
<rect x="412" y="34" width="77" height="36" stroke="black" stroke-width="4"/>
</g>
<g filter="url(#filter1_d_72_303)">
<rect x="571" y="124" width="84" height="40" fill="white"/>
<path d="M603.484 144.852C603.484 146.206 603.195 147.263 602.617 148.023C602.039 148.779 601.232 149.156 600.195 149.156C599.279 149.156 598.547 148.805 598 148.102L597.898 149H595.867V137H598.125V141.305C598.646 140.695 599.331 140.391 600.18 140.391C601.211 140.391 602.018 140.771 602.602 141.531C603.19 142.286 603.484 143.352 603.484 144.727V144.852ZM601.227 144.688C601.227 143.833 601.091 143.211 600.82 142.82C600.549 142.424 600.146 142.227 599.609 142.227C598.891 142.227 598.396 142.521 598.125 143.109V146.445C598.401 147.039 598.901 147.336 599.625 147.336C600.354 147.336 600.833 146.977 601.062 146.258C601.172 145.914 601.227 145.391 601.227 144.688ZM604.531 144.695C604.531 143.857 604.693 143.109 605.016 142.453C605.339 141.797 605.802 141.289 606.406 140.93C607.016 140.57 607.721 140.391 608.523 140.391C609.664 140.391 610.594 140.74 611.312 141.438C612.036 142.135 612.44 143.083 612.523 144.281L612.539 144.859C612.539 146.156 612.177 147.198 611.453 147.984C610.729 148.766 609.758 149.156 608.539 149.156C607.32 149.156 606.346 148.766 605.617 147.984C604.893 147.203 604.531 146.141 604.531 144.797V144.695ZM606.789 144.859C606.789 145.661 606.94 146.276 607.242 146.703C607.544 147.125 607.977 147.336 608.539 147.336C609.086 147.336 609.513 147.128 609.82 146.711C610.128 146.289 610.281 145.617 610.281 144.695C610.281 143.909 610.128 143.299 609.82 142.867C609.513 142.435 609.081 142.219 608.523 142.219C607.971 142.219 607.544 142.435 607.242 142.867C606.94 143.294 606.789 143.958 606.789 144.859ZM613.578 144.711C613.578 143.393 613.872 142.344 614.461 141.562C615.055 140.781 615.865 140.391 616.891 140.391C617.714 140.391 618.393 140.698 618.93 141.312V137H621.195V149H619.156L619.047 148.102C618.484 148.805 617.76 149.156 616.875 149.156C615.88 149.156 615.081 148.766 614.477 147.984C613.878 147.198 613.578 146.107 613.578 144.711ZM615.836 144.875C615.836 145.667 615.974 146.273 616.25 146.695C616.526 147.117 616.927 147.328 617.453 147.328C618.151 147.328 618.643 147.034 618.93 146.445V143.109C618.648 142.521 618.161 142.227 617.469 142.227C616.38 142.227 615.836 143.109 615.836 144.875ZM626.102 145.805L627.664 140.547H630.086L626.688 150.312L626.5 150.758C625.995 151.862 625.161 152.414 624 152.414C623.672 152.414 623.339 152.365 623 152.266V150.555L623.344 150.562C623.771 150.562 624.089 150.497 624.297 150.367C624.51 150.237 624.677 150.021 624.797 149.719L625.062 149.023L622.102 140.547H624.531L626.102 145.805Z" fill="#424242"/>
<rect x="573" y="126" width="80" height="36" stroke="black" stroke-width="4"/>
</g>
<g filter="url(#filter2_d_72_303)">
<rect x="495" y="251" width="67" height="40" fill="white"/>
<path d="M522.07 268.469C522.669 267.75 523.422 267.391 524.328 267.391C526.161 267.391 527.091 268.456 527.117 270.586V276H524.859V270.648C524.859 270.164 524.755 269.807 524.547 269.578C524.339 269.344 523.992 269.227 523.508 269.227C522.846 269.227 522.367 269.482 522.07 269.992V276H519.812V264H522.07V268.469ZM534.211 276H531.953V267.297L529.258 268.133V266.297L533.969 264.609H534.211V276Z" fill="#424242"/>
<rect x="497" y="253" width="63" height="36" stroke="black" stroke-width="4"/>
</g>
<g filter="url(#filter3_d_72_303)">
<rect x="594" y="251" width="58" height="40" fill="white"/>
<path d="M626.477 271.852C626.477 273.154 626.18 274.198 625.586 274.984C624.997 275.766 624.201 276.156 623.195 276.156C622.341 276.156 621.651 275.859 621.125 275.266V279.25H618.867V267.547H620.961L621.039 268.375C621.586 267.719 622.299 267.391 623.18 267.391C624.221 267.391 625.031 267.776 625.609 268.547C626.188 269.318 626.477 270.38 626.477 271.734V271.852ZM624.219 271.688C624.219 270.901 624.078 270.294 623.797 269.867C623.521 269.44 623.117 269.227 622.586 269.227C621.878 269.227 621.391 269.497 621.125 270.039V273.5C621.401 274.057 621.893 274.336 622.602 274.336C623.68 274.336 624.219 273.453 624.219 271.688Z" fill="#424242"/>
<rect x="596" y="253" width="54" height="36" stroke="black" stroke-width="4"/>
</g>
<g filter="url(#filter4_d_72_303)">
<rect x="595" y="323" width="57" height="40" fill="white"/>
<path d="M624.766 348C624.661 347.797 624.586 347.544 624.539 347.242C623.992 347.852 623.281 348.156 622.406 348.156C621.578 348.156 620.891 347.917 620.344 347.438C619.802 346.958 619.531 346.354 619.531 345.625C619.531 344.729 619.862 344.042 620.523 343.562C621.19 343.083 622.151 342.841 623.406 342.836H624.445V342.352C624.445 341.961 624.344 341.648 624.141 341.414C623.943 341.18 623.628 341.062 623.195 341.062C622.815 341.062 622.516 341.154 622.297 341.336C622.083 341.518 621.977 341.768 621.977 342.086H619.719C619.719 341.596 619.87 341.143 620.172 340.727C620.474 340.31 620.901 339.984 621.453 339.75C622.005 339.51 622.625 339.391 623.312 339.391C624.354 339.391 625.18 339.654 625.789 340.18C626.404 340.701 626.711 341.435 626.711 342.383V346.047C626.716 346.849 626.828 347.456 627.047 347.867V348H624.766ZM622.898 346.43C623.232 346.43 623.539 346.357 623.82 346.211C624.102 346.06 624.31 345.859 624.445 345.609V344.156H623.602C622.471 344.156 621.87 344.547 621.797 345.328L621.789 345.461C621.789 345.742 621.888 345.974 622.086 346.156C622.284 346.339 622.555 346.43 622.898 346.43Z" fill="#424242"/>
<rect x="597" y="325" width="53" height="36" stroke="black" stroke-width="4"/>
</g>
<g filter="url(#filter5_d_72_303)">
<rect x="684" y="323" width="57" height="40" fill="white"/>
<path d="M711.25 348H708.984V336H711.25V348ZM715.5 348H713.234V339.547H715.5V348ZM713.102 337.359C713.102 337.021 713.214 336.742 713.438 336.523C713.667 336.305 713.977 336.195 714.367 336.195C714.753 336.195 715.06 336.305 715.289 336.523C715.518 336.742 715.633 337.021 715.633 337.359C715.633 337.703 715.516 337.984 715.281 338.203C715.052 338.422 714.747 338.531 714.367 338.531C713.987 338.531 713.68 338.422 713.445 338.203C713.216 337.984 713.102 337.703 713.102 337.359Z" fill="#424242"/>
<rect x="686" y="325" width="53" height="36" stroke="black" stroke-width="4"/>
</g>
<g filter="url(#filter6_d_72_303)">
<rect x="773" y="323" width="57" height="40" fill="white"/>
<path d="M800.25 348H797.984V336H800.25V348ZM804.5 348H802.234V339.547H804.5V348ZM802.102 337.359C802.102 337.021 802.214 336.742 802.438 336.523C802.667 336.305 802.977 336.195 803.367 336.195C803.753 336.195 804.06 336.305 804.289 336.523C804.518 336.742 804.633 337.021 804.633 337.359C804.633 337.703 804.516 337.984 804.281 338.203C804.052 338.422 803.747 338.531 803.367 338.531C802.987 338.531 802.68 338.422 802.445 338.203C802.216 337.984 802.102 337.703 802.102 337.359Z" fill="#424242"/>
<rect x="775" y="325" width="53" height="36" stroke="black" stroke-width="4"/>
</g>
<g filter="url(#filter7_d_72_303)">
<rect x="684" y="251" width="62" height="40" fill="white"/>
<path d="M713.93 275.141C713.372 275.818 712.602 276.156 711.617 276.156C710.711 276.156 710.018 275.896 709.539 275.375C709.065 274.854 708.823 274.091 708.812 273.086V267.547H711.07V273.008C711.07 273.888 711.471 274.328 712.273 274.328C713.039 274.328 713.565 274.062 713.852 273.531V267.547H716.117V276H713.992L713.93 275.141ZM720.203 276H717.938V264H720.203V276Z" fill="#424242"/>
<rect x="686" y="253" width="58" height="36" stroke="black" stroke-width="4"/>
</g>
<g filter="url(#filter8_d_72_303)">
<rect x="75" y="251" width="76" height="40" fill="white"/>
<path d="M102.57 265.469V267.547H104.016V269.203H102.57V273.422C102.57 273.734 102.63 273.958 102.75 274.094C102.87 274.229 103.099 274.297 103.438 274.297C103.688 274.297 103.909 274.279 104.102 274.242V275.953C103.659 276.089 103.203 276.156 102.734 276.156C101.151 276.156 100.344 275.357 100.312 273.758V269.203H99.0781V267.547H100.312V265.469H102.57ZM107.656 276H105.391V267.547H107.656V276ZM105.258 265.359C105.258 265.021 105.37 264.742 105.594 264.523C105.823 264.305 106.133 264.195 106.523 264.195C106.909 264.195 107.216 264.305 107.445 264.523C107.674 264.742 107.789 265.021 107.789 265.359C107.789 265.703 107.672 265.984 107.438 266.203C107.208 266.422 106.904 266.531 106.523 266.531C106.143 266.531 105.836 266.422 105.602 266.203C105.372 265.984 105.258 265.703 105.258 265.359ZM112.227 265.469V267.547H113.672V269.203H112.227V273.422C112.227 273.734 112.286 273.958 112.406 274.094C112.526 274.229 112.755 274.297 113.094 274.297C113.344 274.297 113.565 274.279 113.758 274.242V275.953C113.315 276.089 112.859 276.156 112.391 276.156C110.807 276.156 110 275.357 109.969 273.758V269.203H108.734V267.547H109.969V265.469H112.227ZM117.312 276H115.047V264H117.312V276ZM123.07 276.156C121.831 276.156 120.82 275.776 120.039 275.016C119.263 274.255 118.875 273.242 118.875 271.977V271.758C118.875 270.909 119.039 270.151 119.367 269.484C119.695 268.812 120.159 268.297 120.758 267.938C121.362 267.573 122.049 267.391 122.82 267.391C123.977 267.391 124.885 267.755 125.547 268.484C126.214 269.214 126.547 270.247 126.547 271.586V272.508H121.164C121.237 273.06 121.456 273.503 121.82 273.836C122.19 274.169 122.656 274.336 123.219 274.336C124.089 274.336 124.768 274.021 125.258 273.391L126.367 274.633C126.029 275.112 125.57 275.487 124.992 275.758C124.414 276.023 123.773 276.156 123.07 276.156ZM122.812 269.219C122.365 269.219 122 269.37 121.719 269.672C121.443 269.974 121.266 270.406 121.188 270.969H124.328V270.789C124.318 270.289 124.182 269.904 123.922 269.633C123.661 269.357 123.292 269.219 122.812 269.219Z" fill="#424242"/>
<rect x="77" y="253" width="72" height="36" stroke="black" stroke-width="4"/>
</g>
<g filter="url(#filter9_d_72_303)">
<rect x="183" y="251" width="85" height="40" fill="white"/>
<path d="M209.984 267.547L210.055 268.492C210.654 267.758 211.464 267.391 212.484 267.391C213.573 267.391 214.32 267.82 214.727 268.68C215.32 267.82 216.167 267.391 217.266 267.391C218.182 267.391 218.865 267.659 219.312 268.195C219.76 268.727 219.984 269.529 219.984 270.602V276H217.719V270.609C217.719 270.13 217.625 269.781 217.438 269.562C217.25 269.339 216.919 269.227 216.445 269.227C215.768 269.227 215.299 269.549 215.039 270.195L215.047 276H212.789V270.617C212.789 270.128 212.693 269.773 212.5 269.555C212.307 269.336 211.979 269.227 211.516 269.227C210.875 269.227 210.411 269.492 210.125 270.023V276H207.867V267.547H209.984ZM225.617 276.156C224.378 276.156 223.367 275.776 222.586 275.016C221.81 274.255 221.422 273.242 221.422 271.977V271.758C221.422 270.909 221.586 270.151 221.914 269.484C222.242 268.812 222.706 268.297 223.305 267.938C223.909 267.573 224.596 267.391 225.367 267.391C226.523 267.391 227.432 267.755 228.094 268.484C228.76 269.214 229.094 270.247 229.094 271.586V272.508H223.711C223.784 273.06 224.003 273.503 224.367 273.836C224.737 274.169 225.203 274.336 225.766 274.336C226.635 274.336 227.315 274.021 227.805 273.391L228.914 274.633C228.576 275.112 228.117 275.487 227.539 275.758C226.961 276.023 226.32 276.156 225.617 276.156ZM225.359 269.219C224.911 269.219 224.547 269.37 224.266 269.672C223.99 269.974 223.812 270.406 223.734 270.969H226.875V270.789C226.865 270.289 226.729 269.904 226.469 269.633C226.208 269.357 225.839 269.219 225.359 269.219ZM233.086 265.469V267.547H234.531V269.203H233.086V273.422C233.086 273.734 233.146 273.958 233.266 274.094C233.385 274.229 233.615 274.297 233.953 274.297C234.203 274.297 234.424 274.279 234.617 274.242V275.953C234.174 276.089 233.719 276.156 233.25 276.156C231.667 276.156 230.859 275.357 230.828 273.758V269.203H229.594V267.547H230.828V265.469H233.086ZM240.688 276C240.583 275.797 240.508 275.544 240.461 275.242C239.914 275.852 239.203 276.156 238.328 276.156C237.5 276.156 236.812 275.917 236.266 275.438C235.724 274.958 235.453 274.354 235.453 273.625C235.453 272.729 235.784 272.042 236.445 271.562C237.112 271.083 238.073 270.841 239.328 270.836H240.367V270.352C240.367 269.961 240.266 269.648 240.062 269.414C239.865 269.18 239.549 269.062 239.117 269.062C238.737 269.062 238.438 269.154 238.219 269.336C238.005 269.518 237.898 269.768 237.898 270.086H235.641C235.641 269.596 235.792 269.143 236.094 268.727C236.396 268.31 236.823 267.984 237.375 267.75C237.927 267.51 238.547 267.391 239.234 267.391C240.276 267.391 241.102 267.654 241.711 268.18C242.326 268.701 242.633 269.435 242.633 270.383V274.047C242.638 274.849 242.75 275.456 242.969 275.867V276H240.688ZM238.82 274.43C239.154 274.43 239.461 274.357 239.742 274.211C240.023 274.06 240.232 273.859 240.367 273.609V272.156H239.523C238.393 272.156 237.792 272.547 237.719 273.328L237.711 273.461C237.711 273.742 237.81 273.974 238.008 274.156C238.206 274.339 238.477 274.43 238.82 274.43Z" fill="#424242"/>
<rect x="185" y="253" width="81" height="36" stroke="black" stroke-width="4"/>
</g>
<g filter="url(#filter10_d_72_303)">
<rect x="300" y="251" width="85" height="40" fill="white"/>
<path d="M326.984 267.547L327.055 268.492C327.654 267.758 328.464 267.391 329.484 267.391C330.573 267.391 331.32 267.82 331.727 268.68C332.32 267.82 333.167 267.391 334.266 267.391C335.182 267.391 335.865 267.659 336.312 268.195C336.76 268.727 336.984 269.529 336.984 270.602V276H334.719V270.609C334.719 270.13 334.625 269.781 334.438 269.562C334.25 269.339 333.919 269.227 333.445 269.227C332.768 269.227 332.299 269.549 332.039 270.195L332.047 276H329.789V270.617C329.789 270.128 329.693 269.773 329.5 269.555C329.307 269.336 328.979 269.227 328.516 269.227C327.875 269.227 327.411 269.492 327.125 270.023V276H324.867V267.547H326.984ZM342.617 276.156C341.378 276.156 340.367 275.776 339.586 275.016C338.81 274.255 338.422 273.242 338.422 271.977V271.758C338.422 270.909 338.586 270.151 338.914 269.484C339.242 268.812 339.706 268.297 340.305 267.938C340.909 267.573 341.596 267.391 342.367 267.391C343.523 267.391 344.432 267.755 345.094 268.484C345.76 269.214 346.094 270.247 346.094 271.586V272.508H340.711C340.784 273.06 341.003 273.503 341.367 273.836C341.737 274.169 342.203 274.336 342.766 274.336C343.635 274.336 344.315 274.021 344.805 273.391L345.914 274.633C345.576 275.112 345.117 275.487 344.539 275.758C343.961 276.023 343.32 276.156 342.617 276.156ZM342.359 269.219C341.911 269.219 341.547 269.37 341.266 269.672C340.99 269.974 340.812 270.406 340.734 270.969H343.875V270.789C343.865 270.289 343.729 269.904 343.469 269.633C343.208 269.357 342.839 269.219 342.359 269.219ZM350.086 265.469V267.547H351.531V269.203H350.086V273.422C350.086 273.734 350.146 273.958 350.266 274.094C350.385 274.229 350.615 274.297 350.953 274.297C351.203 274.297 351.424 274.279 351.617 274.242V275.953C351.174 276.089 350.719 276.156 350.25 276.156C348.667 276.156 347.859 275.357 347.828 273.758V269.203H346.594V267.547H347.828V265.469H350.086ZM357.688 276C357.583 275.797 357.508 275.544 357.461 275.242C356.914 275.852 356.203 276.156 355.328 276.156C354.5 276.156 353.812 275.917 353.266 275.438C352.724 274.958 352.453 274.354 352.453 273.625C352.453 272.729 352.784 272.042 353.445 271.562C354.112 271.083 355.073 270.841 356.328 270.836H357.367V270.352C357.367 269.961 357.266 269.648 357.062 269.414C356.865 269.18 356.549 269.062 356.117 269.062C355.737 269.062 355.438 269.154 355.219 269.336C355.005 269.518 354.898 269.768 354.898 270.086H352.641C352.641 269.596 352.792 269.143 353.094 268.727C353.396 268.31 353.823 267.984 354.375 267.75C354.927 267.51 355.547 267.391 356.234 267.391C357.276 267.391 358.102 267.654 358.711 268.18C359.326 268.701 359.633 269.435 359.633 270.383V274.047C359.638 274.849 359.75 275.456 359.969 275.867V276H357.688ZM355.82 274.43C356.154 274.43 356.461 274.357 356.742 274.211C357.023 274.06 357.232 273.859 357.367 273.609V272.156H356.523C355.393 272.156 354.792 272.547 354.719 273.328L354.711 273.461C354.711 273.742 354.81 273.974 355.008 274.156C355.206 274.339 355.477 274.43 355.82 274.43Z" fill="#424242"/>
<rect x="302" y="253" width="81" height="36" stroke="black" stroke-width="4"/>
</g>
<g filter="url(#filter11_d_72_303)">
<rect x="184" y="129" width="84" height="40" fill="white"/>
<path d="M211.07 146.469C211.669 145.75 212.422 145.391 213.328 145.391C215.161 145.391 216.091 146.456 216.117 148.586V154H213.859V148.648C213.859 148.164 213.755 147.807 213.547 147.578C213.339 147.344 212.992 147.227 212.508 147.227C211.846 147.227 211.367 147.482 211.07 147.992V154H208.812V142H211.07V146.469ZM221.711 154.156C220.471 154.156 219.461 153.776 218.68 153.016C217.904 152.255 217.516 151.242 217.516 149.977V149.758C217.516 148.909 217.68 148.151 218.008 147.484C218.336 146.812 218.799 146.297 219.398 145.938C220.003 145.573 220.69 145.391 221.461 145.391C222.617 145.391 223.526 145.755 224.188 146.484C224.854 147.214 225.188 148.247 225.188 149.586V150.508H219.805C219.878 151.06 220.096 151.503 220.461 151.836C220.831 152.169 221.297 152.336 221.859 152.336C222.729 152.336 223.409 152.021 223.898 151.391L225.008 152.633C224.669 153.112 224.211 153.487 223.633 153.758C223.055 154.023 222.414 154.156 221.711 154.156ZM221.453 147.219C221.005 147.219 220.641 147.37 220.359 147.672C220.083 147.974 219.906 148.406 219.828 148.969H222.969V148.789C222.958 148.289 222.823 147.904 222.562 147.633C222.302 147.357 221.932 147.219 221.453 147.219ZM231.375 154C231.271 153.797 231.195 153.544 231.148 153.242C230.602 153.852 229.891 154.156 229.016 154.156C228.188 154.156 227.5 153.917 226.953 153.438C226.411 152.958 226.141 152.354 226.141 151.625C226.141 150.729 226.471 150.042 227.133 149.562C227.799 149.083 228.76 148.841 230.016 148.836H231.055V148.352C231.055 147.961 230.953 147.648 230.75 147.414C230.552 147.18 230.237 147.062 229.805 147.062C229.424 147.062 229.125 147.154 228.906 147.336C228.693 147.518 228.586 147.768 228.586 148.086H226.328C226.328 147.596 226.479 147.143 226.781 146.727C227.083 146.31 227.51 145.984 228.062 145.75C228.615 145.51 229.234 145.391 229.922 145.391C230.964 145.391 231.789 145.654 232.398 146.18C233.013 146.701 233.32 147.435 233.32 148.383V152.047C233.326 152.849 233.438 153.456 233.656 153.867V154H231.375ZM229.508 152.43C229.841 152.43 230.148 152.357 230.43 152.211C230.711 152.06 230.919 151.859 231.055 151.609V150.156H230.211C229.081 150.156 228.479 150.547 228.406 151.328L228.398 151.461C228.398 151.742 228.497 151.974 228.695 152.156C228.893 152.339 229.164 152.43 229.508 152.43ZM234.703 149.711C234.703 148.393 234.997 147.344 235.586 146.562C236.18 145.781 236.99 145.391 238.016 145.391C238.839 145.391 239.518 145.698 240.055 146.312V142H242.32V154H240.281L240.172 153.102C239.609 153.805 238.885 154.156 238 154.156C237.005 154.156 236.206 153.766 235.602 152.984C235.003 152.198 234.703 151.107 234.703 149.711ZM236.961 149.875C236.961 150.667 237.099 151.273 237.375 151.695C237.651 152.117 238.052 152.328 238.578 152.328C239.276 152.328 239.768 152.034 240.055 151.445V148.109C239.773 147.521 239.286 147.227 238.594 147.227C237.505 147.227 236.961 148.109 236.961 149.875Z" fill="#424242"/>
<rect x="186" y="131" width="80" height="36" stroke="black" stroke-width="4"/>
</g>
<path d="M339 52V51C338.448 51 338 51.4477 338 52H339ZM339 149V150C339.552 150 340 149.552 340 149H339ZM410 51H339V53H410V51ZM338 52V149H340V52H338ZM339 148H268V150H339V148Z" fill="black"/>
<path d="M226 210V211C226.552 211 227 210.552 227 210H226ZM225.5 210V209C224.948 209 224.5 209.448 224.5 210H225.5ZM225 169V210H227V169H225ZM226 209H225.5V211H226V209ZM224.5 210V251H226.5V210H224.5Z" fill="black"/>
<path d="M167.5 149V148C166.948 148 166.5 148.448 166.5 149H167.5ZM167.5 271V272C168.052 272 168.5 271.552 168.5 271H167.5ZM184 148H167.5V150H184V148ZM166.5 149V271H168.5V149H166.5ZM167.5 270H151V272H167.5V270Z" fill="black"/>
<path d="M284 149H285C285 148.448 284.552 148 284 148V149ZM284 271H283C283 271.552 283.448 272 284 272V271ZM268 150H284V148H268V150ZM283 149V271H285V149H283ZM284 272H300V270H284V272Z" fill="black"/>
<path d="M268 272H300V270H268V272Z" fill="black"/>
<path d="M151 272H183V270H151V272Z" fill="black"/>
<path d="M531 52H532C532 51.4477 531.552 51 531 51V52ZM531 144H530C530 144.552 530.448 145 531 145V144ZM491 53H531V51H491V53ZM530 52V144H532V52H530ZM531 145H571V143H531V145Z" fill="black"/>
<path d="M566.5 144V143C565.948 143 565.5 143.448 565.5 144H566.5ZM566.5 271V272C567.052 272 567.5 271.552 567.5 271H566.5ZM571 143H566.5V145H571V143ZM565.5 144V271H567.5V144H565.5ZM566.5 270H562V272H566.5V270Z" fill="black"/>
<path d="M613 207.5H612C612 208.052 612.448 208.5 613 208.5V207.5ZM623 207.5H624C624 206.948 623.552 206.5 623 206.5V207.5ZM612 164V207.5H614V164H612ZM613 208.5H623V206.5H613V208.5ZM622 207.5V251H624V207.5H622Z" fill="black"/>
<path d="M669.5 144H670.5C670.5 143.448 670.052 143 669.5 143V144ZM669.5 271H668.5C668.5 271.552 668.948 272 669.5 272V271ZM655 145H669.5V143H655V145ZM668.5 144V271H670.5V144H668.5ZM669.5 272H684V270H669.5V272Z" fill="black"/>
<path d="M623 307H622C622 307.552 622.448 308 623 308V307ZM623.5 307H624.5C624.5 306.448 624.052 306 623.5 306V307ZM622 291V307H624V291H622ZM623 308H623.5V306H623V308ZM622.5 307V323H624.5V307H622.5Z" fill="black"/>
<path d="M715 307V308C715.552 308 716 307.552 716 307H715ZM712.5 307V306C711.948 306 711.5 306.448 711.5 307H712.5ZM714 291V307H716V291H714ZM715 306H712.5V308H715V306ZM711.5 307V323H713.5V307H711.5Z" fill="black"/>
<path d="M759.5 271H760.5C760.5 270.448 760.052 270 759.5 270V271ZM759.5 343H758.5C758.5 343.552 758.948 344 759.5 344V343ZM746 272H759.5V270H746V272ZM758.5 271V343H760.5V271H758.5ZM759.5 344H773V342H759.5V344Z" fill="black"/>
<path d="M741 344H773V342H741V344Z" fill="black"/>
<circle cx="-6" cy="605" r="250" fill="#5758FA"/>
<circle cx="900" cy="-131" r="250" fill="#5758FA"/>
</g>
<defs>
<filter id="filter0_d_72_303" x="406" y="32" width="85" height="44" filterUnits="userSpaceOnUse" color-interpolation-filters="sRGB">
<feFlood flood-opacity="0" result="BackgroundImageFix"/>
<feColorMatrix in="SourceAlpha" type="matrix" values="0 0 0 0 0 0 0 0 0 0 0 0 0 0 0 0 0 0 127 0" result="hardAlpha"/>
<feOffset dx="-4" dy="4"/>
<feColorMatrix type="matrix" values="0 0 0 0 0.287581 0 0 0 0 0.287581 0 0 0 0 0.287581 0 0 0 1 0"/>
<feBlend mode="normal" in2="BackgroundImageFix" result="effect1_dropShadow_72_303"/>
<feBlend mode="normal" in="SourceGraphic" in2="effect1_dropShadow_72_303" result="shape"/>
</filter>
<filter id="filter1_d_72_303" x="567" y="124" width="88" height="44" filterUnits="userSpaceOnUse" color-interpolation-filters="sRGB">
<feFlood flood-opacity="0" result="BackgroundImageFix"/>
<feColorMatrix in="SourceAlpha" type="matrix" values="0 0 0 0 0 0 0 0 0 0 0 0 0 0 0 0 0 0 127 0" result="hardAlpha"/>
<feOffset dx="-4" dy="4"/>
<feColorMatrix type="matrix" values="0 0 0 0 0.287581 0 0 0 0 0.287581 0 0 0 0 0.287581 0 0 0 1 0"/>
<feBlend mode="normal" in2="BackgroundImageFix" result="effect1_dropShadow_72_303"/>
<feBlend mode="normal" in="SourceGraphic" in2="effect1_dropShadow_72_303" result="shape"/>
</filter>
<filter id="filter2_d_72_303" x="491" y="251" width="71" height="44" filterUnits="userSpaceOnUse" color-interpolation-filters="sRGB">
<feFlood flood-opacity="0" result="BackgroundImageFix"/>
<feColorMatrix in="SourceAlpha" type="matrix" values="0 0 0 0 0 0 0 0 0 0 0 0 0 0 0 0 0 0 127 0" result="hardAlpha"/>
<feOffset dx="-4" dy="4"/>
<feColorMatrix type="matrix" values="0 0 0 0 0.287581 0 0 0 0 0.287581 0 0 0 0 0.287581 0 0 0 1 0"/>
<feBlend mode="normal" in2="BackgroundImageFix" result="effect1_dropShadow_72_303"/>
<feBlend mode="normal" in="SourceGraphic" in2="effect1_dropShadow_72_303" result="shape"/>
</filter>
<filter id="filter3_d_72_303" x="590" y="251" width="62" height="44" filterUnits="userSpaceOnUse" color-interpolation-filters="sRGB">
<feFlood flood-opacity="0" result="BackgroundImageFix"/>
<feColorMatrix in="SourceAlpha" type="matrix" values="0 0 0 0 0 0 0 0 0 0 0 0 0 0 0 0 0 0 127 0" result="hardAlpha"/>
<feOffset dx="-4" dy="4"/>
<feColorMatrix type="matrix" values="0 0 0 0 0.287581 0 0 0 0 0.287581 0 0 0 0 0.287581 0 0 0 1 0"/>
<feBlend mode="normal" in2="BackgroundImageFix" result="effect1_dropShadow_72_303"/>
<feBlend mode="normal" in="SourceGraphic" in2="effect1_dropShadow_72_303" result="shape"/>
</filter>
<filter id="filter4_d_72_303" x="591" y="323" width="61" height="44" filterUnits="userSpaceOnUse" color-interpolation-filters="sRGB">
<feFlood flood-opacity="0" result="BackgroundImageFix"/>
<feColorMatrix in="SourceAlpha" type="matrix" values="0 0 0 0 0 0 0 0 0 0 0 0 0 0 0 0 0 0 127 0" result="hardAlpha"/>
<feOffset dx="-4" dy="4"/>
<feColorMatrix type="matrix" values="0 0 0 0 0.287581 0 0 0 0 0.287581 0 0 0 0 0.287581 0 0 0 1 0"/>
<feBlend mode="normal" in2="BackgroundImageFix" result="effect1_dropShadow_72_303"/>
<feBlend mode="normal" in="SourceGraphic" in2="effect1_dropShadow_72_303" result="shape"/>
</filter>
<filter id="filter5_d_72_303" x="680" y="323" width="61" height="44" filterUnits="userSpaceOnUse" color-interpolation-filters="sRGB">
<feFlood flood-opacity="0" result="BackgroundImageFix"/>
<feColorMatrix in="SourceAlpha" type="matrix" values="0 0 0 0 0 0 0 0 0 0 0 0 0 0 0 0 0 0 127 0" result="hardAlpha"/>
<feOffset dx="-4" dy="4"/>
<feColorMatrix type="matrix" values="0 0 0 0 0.287581 0 0 0 0 0.287581 0 0 0 0 0.287581 0 0 0 1 0"/>
<feBlend mode="normal" in2="BackgroundImageFix" result="effect1_dropShadow_72_303"/>
<feBlend mode="normal" in="SourceGraphic" in2="effect1_dropShadow_72_303" result="shape"/>
</filter>
<filter id="filter6_d_72_303" x="769" y="323" width="61" height="44" filterUnits="userSpaceOnUse" color-interpolation-filters="sRGB">
<feFlood flood-opacity="0" result="BackgroundImageFix"/>
<feColorMatrix in="SourceAlpha" type="matrix" values="0 0 0 0 0 0 0 0 0 0 0 0 0 0 0 0 0 0 127 0" result="hardAlpha"/>
<feOffset dx="-4" dy="4"/>
<feColorMatrix type="matrix" values="0 0 0 0 0.287581 0 0 0 0 0.287581 0 0 0 0 0.287581 0 0 0 1 0"/>
<feBlend mode="normal" in2="BackgroundImageFix" result="effect1_dropShadow_72_303"/>
<feBlend mode="normal" in="SourceGraphic" in2="effect1_dropShadow_72_303" result="shape"/>
</filter>
<filter id="filter7_d_72_303" x="680" y="251" width="66" height="44" filterUnits="userSpaceOnUse" color-interpolation-filters="sRGB">
<feFlood flood-opacity="0" result="BackgroundImageFix"/>
<feColorMatrix in="SourceAlpha" type="matrix" values="0 0 0 0 0 0 0 0 0 0 0 0 0 0 0 0 0 0 127 0" result="hardAlpha"/>
<feOffset dx="-4" dy="4"/>
<feColorMatrix type="matrix" values="0 0 0 0 0.287581 0 0 0 0 0.287581 0 0 0 0 0.287581 0 0 0 1 0"/>
<feBlend mode="normal" in2="BackgroundImageFix" result="effect1_dropShadow_72_303"/>
<feBlend mode="normal" in="SourceGraphic" in2="effect1_dropShadow_72_303" result="shape"/>
</filter>
<filter id="filter8_d_72_303" x="71" y="251" width="80" height="44" filterUnits="userSpaceOnUse" color-interpolation-filters="sRGB">
<feFlood flood-opacity="0" result="BackgroundImageFix"/>
<feColorMatrix in="SourceAlpha" type="matrix" values="0 0 0 0 0 0 0 0 0 0 0 0 0 0 0 0 0 0 127 0" result="hardAlpha"/>
<feOffset dx="-4" dy="4"/>
<feColorMatrix type="matrix" values="0 0 0 0 0.287581 0 0 0 0 0.287581 0 0 0 0 0.287581 0 0 0 1 0"/>
<feBlend mode="normal" in2="BackgroundImageFix" result="effect1_dropShadow_72_303"/>
<feBlend mode="normal" in="SourceGraphic" in2="effect1_dropShadow_72_303" result="shape"/>
</filter>
<filter id="filter9_d_72_303" x="179" y="251" width="89" height="44" filterUnits="userSpaceOnUse" color-interpolation-filters="sRGB">
<feFlood flood-opacity="0" result="BackgroundImageFix"/>
<feColorMatrix in="SourceAlpha" type="matrix" values="0 0 0 0 0 0 0 0 0 0 0 0 0 0 0 0 0 0 127 0" result="hardAlpha"/>
<feOffset dx="-4" dy="4"/>
<feColorMatrix type="matrix" values="0 0 0 0 0.287581 0 0 0 0 0.287581 0 0 0 0 0.287581 0 0 0 1 0"/>
<feBlend mode="normal" in2="BackgroundImageFix" result="effect1_dropShadow_72_303"/>
<feBlend mode="normal" in="SourceGraphic" in2="effect1_dropShadow_72_303" result="shape"/>
</filter>
<filter id="filter10_d_72_303" x="296" y="251" width="89" height="44" filterUnits="userSpaceOnUse" color-interpolation-filters="sRGB">
<feFlood flood-opacity="0" result="BackgroundImageFix"/>
<feColorMatrix in="SourceAlpha" type="matrix" values="0 0 0 0 0 0 0 0 0 0 0 0 0 0 0 0 0 0 127 0" result="hardAlpha"/>
<feOffset dx="-4" dy="4"/>
<feColorMatrix type="matrix" values="0 0 0 0 0.287581 0 0 0 0 0.287581 0 0 0 0 0.287581 0 0 0 1 0"/>
<feBlend mode="normal" in2="BackgroundImageFix" result="effect1_dropShadow_72_303"/>
<feBlend mode="normal" in="SourceGraphic" in2="effect1_dropShadow_72_303" result="shape"/>
</filter>
<filter id="filter11_d_72_303" x="180" y="129" width="88" height="44" filterUnits="userSpaceOnUse" color-interpolation-filters="sRGB">
<feFlood flood-opacity="0" result="BackgroundImageFix"/>
<feColorMatrix in="SourceAlpha" type="matrix" values="0 0 0 0 0 0 0 0 0 0 0 0 0 0 0 0 0 0 127 0" result="hardAlpha"/>
<feOffset dx="-4" dy="4"/>
<feColorMatrix type="matrix" values="0 0 0 0 0.287581 0 0 0 0 0.287581 0 0 0 0 0.287581 0 0 0 1 0"/>
<feBlend mode="normal" in2="BackgroundImageFix" result="effect1_dropShadow_72_303"/>
<feBlend mode="normal" in="SourceGraphic" in2="effect1_dropShadow_72_303" result="shape"/>
</filter>
<clipPath id="clip0_72_303">
<rect width="900" height="470" fill="white"/>
</clipPath>
</defs>
</svg>
